<?xml version="1.0" encoding="UTF-8" standalone="no"?>
<svg
   xmlns:dc="http://purl.org/dc/elements/1.1/"
   xmlns:cc="http://creativecommons.org/ns#"
   xmlns:rdf="http://www.w3.org/1999/02/22-rdf-syntax-ns#"
   xmlns:svg="http://www.w3.org/2000/svg"
   xmlns="http://www.w3.org/2000/svg"
   xmlns:sodipodi="http://sodipodi.sourceforge.net/DTD/sodipodi-0.dtd"
   xmlns:inkscape="http://www.inkscape.org/namespaces/inkscape"
   version="1.1"
   width="128px"
   height="128px"
   id="RSSicon"
   viewBox="0 0 256 256"
   sodipodi:docname="rss-top-right.svg"
   inkscape:version="0.92.5 (2060ec1f9f, 2020-04-08)">
  <metadata
     id="metadata3817">
    <rdf:RDF>
      <cc:Work
         rdf:about="">
        <dc:format>image/svg+xml</dc:format>
        <dc:type
           rdf:resource="http://purl.org/dc/dcmitype/StillImage" />
        <dc:title></dc:title>
      </cc:Work>
    </rdf:RDF>
  </metadata>
  <sodipodi:namedview
     pagecolor="#ffffff"
     bordercolor="#666666"
     borderopacity="1"
     objecttolerance="10"
     gridtolerance="10"
     guidetolerance="10"
     inkscape:pageopacity="0"
     inkscape:pageshadow="2"
     inkscape:window-width="1366"
     inkscape:window-height="704"
     id="namedview3815"
     showgrid="false"
     inkscape:zoom="2.8394757"
     inkscape:cx="-23.807369"
     inkscape:cy="72.647698"
     inkscape:window-x="0"
     inkscape:window-y="27"
     inkscape:window-maximized="1"
     inkscape:current-layer="layer2" />
  <defs
     id="defs3800">
    <linearGradient
       x1="0.085"
       y1="0.085"
       x2="0.915"
       y2="0.915"
       id="RSSg">
      <stop
         offset="0.0"
         stop-color="#E3702D"
         id="stop3785" />
      <stop
         offset="0.1071"
         stop-color="#EA7D31"
         id="stop3787" />
      <stop
         offset="0.3503"
         stop-color="#F69537"
         id="stop3789" />
      <stop
         offset="0.5"
         stop-color="#FB9E3A"
         id="stop3791" />
      <stop
         offset="0.7016"
         stop-color="#EA7C31"
         id="stop3793" />
      <stop
         offset="0.8866"
         stop-color="#DE642B"
         id="stop3795" />
      <stop
         offset="1.0"
         stop-color="#D95B29"
         id="stop3797" />
    </linearGradient>
  </defs>
  <g
     inkscape:groupmode="layer"
     id="layer2"
     inkscape:label="default"
     style="display:inline;opacity:1">
    <g
       id="g3948">
      <path
         inkscape:connector-curvature="0"
         id="path3854"
         d="M 255.67754,-0.38671876 215.99004,39.191406 C 208.23387,32.63213 198.19674,28.679688 187.19707,28.679688 H 68.915818 c -24.685406,0 -44.558586,19.873196 -44.558586,44.558594 V 191.51953 c 0,10.87385 3.85628,20.81223 10.28124,28.53125 L -2.1154281,256.70312 -0.70526808,0.3203125 Z M 34.638472,220.05078 54.365032,200.3789 a 141.77698,141.77698 0 0 0 -0.0312,0.86328 h 28.355424 a 113.42159,113.42159 0 0 1 5.4375,-34.53515 L 161.74394,93.289062 a 113.42159,113.42159 0 0 1 34.36719,-5.46875 V 59.464844 a 141.77698,141.77698 0 0 0 -0.47266,0.02344 l 20.35157,-20.296878 c 9.65017,8.16101 15.76562,20.361152 15.76562,34.046876 V 191.51953 c 0,24.68539 -19.87319,44.55859 -44.55859,44.55859 H 68.915818 c -13.811548,0 -26.116586,-6.22294 -34.277346,-16.02734 z M 195.63847,59.488282 161.74394,93.289062 A 113.42159,113.42159 0 0 0 88.126756,166.70703 L 54.365032,200.3789 A 141.77698,141.77698 0 0 1 195.63847,59.488282 Z m 0.47266,47.773438 a 93.977886,93.977886 0 0 0 -93.98047,93.98046 h 27.54688 a 66.432644,66.432644 0 0 1 66.43359,-66.43359 z m -19.44531,55.09375 a 19.443703,19.443703 0 0 0 -19.44531,19.44141 19.443703,19.443703 0 0 0 19.44531,19.4453 19.443703,19.443703 0 0 0 19.44531,-19.4453 19.443703,19.443703 0 0 0 -19.44531,-19.44141 z"
         style="fill:#280b0b;stroke:#000000;stroke-width:2px;stroke-linecap:butt;stroke-linejoin:miter;stroke-opacity:1" />
    </g>
  </g>
</svg>
