<?xml version="1.0" encoding="UTF-8" standalone="no"?>
<svg
   xmlns:dc="http://purl.org/dc/elements/1.1/"
   xmlns:cc="http://creativecommons.org/ns#"
   xmlns:rdf="http://www.w3.org/1999/02/22-rdf-syntax-ns#"
   xmlns:svg="http://www.w3.org/2000/svg"
   xmlns="http://www.w3.org/2000/svg"
   xmlns:sodipodi="http://sodipodi.sourceforge.net/DTD/sodipodi-0.dtd"
   xmlns:inkscape="http://www.inkscape.org/namespaces/inkscape"
   version="1.1"
   width="128px"
   height="128px"
   id="RSSicon"
   viewBox="0 0 256 256"
   sodipodi:docname="rss-top-right.svg"
   inkscape:version="0.92.5 (2060ec1f9f, 2020-04-08)">
  <metadata
     id="metadata3817">
    <rdf:RDF>
      <cc:Work
         rdf:about="">
        <dc:format>image/svg+xml</dc:format>
        <dc:type
           rdf:resource="http://purl.org/dc/dcmitype/StillImage" />
        <dc:title></dc:title>
      </cc:Work>
    </rdf:RDF>
  </metadata>
  <sodipodi:namedview
     pagecolor="#ffffff"
     bordercolor="#666666"
     borderopacity="1"
     objecttolerance="10"
     gridtolerance="10"
     guidetolerance="10"
     inkscape:pageopacity="0"
     inkscape:pageshadow="2"
     inkscape:window-width="1366"
     inkscape:window-height="704"
     id="namedview3815"
     showgrid="false"
     inkscape:zoom="2.8394757"
     inkscape:cx="-5.1419512"
     inkscape:cy="72.647698"
     inkscape:window-x="0"
     inkscape:window-y="27"
     inkscape:window-maximized="1"
     inkscape:current-layer="layer2" />
  <defs
     id="defs3800">
    <linearGradient
       x1="0.085"
       y1="0.085"
       x2="0.915"
       y2="0.915"
       id="RSSg">
      <stop
         offset="0.0"
         stop-color="#E3702D"
         id="stop3785" />
      <stop
         offset="0.1071"
         stop-color="#EA7D31"
         id="stop3787" />
      <stop
         offset="0.3503"
         stop-color="#F69537"
         id="stop3789" />
      <stop
         offset="0.5"
         stop-color="#FB9E3A"
         id="stop3791" />
      <stop
         offset="0.7016"
         stop-color="#EA7C31"
         id="stop3793" />
      <stop
         offset="0.8866"
         stop-color="#DE642B"
         id="stop3795" />
      <stop
         offset="1.0"
         stop-color="#D95B29"
         id="stop3797" />
    </linearGradient>
  </defs>
  <g
     inkscape:groupmode="layer"
     id="layer2"
     inkscape:label="default"
     style="display:inline;opacity:1">
    <path
       style="fill:#280b0b;stroke:#000000;stroke-width:1px;stroke-linecap:butt;stroke-linejoin:miter;stroke-opacity:1"
       d="M -0.3515625,-0.19335938 19.492188,19.595703 c 3.878081,-3.279638 8.896647,-5.255859 14.396484,-5.255859 h 59.140625 c 12.342703,0 22.279293,9.936598 22.279293,22.279297 v 59.140625 c 0,5.436924 -1.92814,10.406114 -5.14062,14.265624 L 128.54492,128.35156 127.83984,0.16015625 Z M 110.16797,110.02539 l -9.86328,-9.83594 a 70.88849,70.88849 0 0 1 0.0156,0.43164 H 86.142578 A 56.710795,56.710795 0 0 0 83.423828,83.353516 L 46.615234,46.644531 A 56.710795,56.710795 0 0 0 29.431641,43.910156 V 29.732422 a 70.88849,70.88849 0 0 1 0.236328,0.01172 L 19.492188,19.595703 c -4.825086,4.080505 -7.882813,10.180576 -7.882813,17.023438 v 59.140625 c 0,12.342694 9.936598,22.279294 22.279297,22.279294 h 59.140625 c 6.905774,0 13.058293,-3.11147 17.138673,-8.01367 z M 29.667969,29.744141 46.615234,46.644531 A 56.710795,56.710795 0 0 1 83.423828,83.353516 L 100.30469,100.18945 A 70.88849,70.88849 0 0 0 29.667969,29.744141 Z M 29.431641,53.630859 A 46.988943,46.988943 0 0 1 76.421875,100.62109 H 62.648438 A 33.216322,33.216322 0 0 0 29.431641,67.404297 Z m 9.722656,27.546875 a 9.7218515,9.7218515 0 0 1 9.722656,9.720704 9.7218515,9.7218515 0 0 1 -9.722656,9.722652 9.7218515,9.7218515 0 0 1 -9.722656,-9.722652 9.7218515,9.7218515 0 0 1 9.722656,-9.720704 z"
       transform="scale(2)"
       id="path3854"
       inkscape:connector-curvature="0" />
  </g>
</svg>
